<svg version="1.2" xmlns="http://www.w3.org/2000/svg" viewBox="0 0 182 168" width="179" height="165">
	<title>amigos-svg</title>
	<style>
		.s0 { fill: #000000 } 
		.s1 { fill: #fdfdfd } 
		.s2 { fill: #fd646e } 
		.s3 { fill: #d78955 } 
		.s4 { fill: #d7ebfd } 
		.s5 { fill: #c3e1fe } 
		.s6 { fill: #fdd302 } 
		.s7 { fill: #f8c500 } 
		.s8 { fill: #d7ebfc } 
		.s9 { fill: #96d629 } 
		.s10 { fill: #fb4755 } 
		.s11 { fill: #8ac627 } 
		.s12 { fill: #c47944 } 
		.s13 { fill: #fce2bf } 
		.s14 { fill: #fcd0a3 } 
		.s15 { fill: #fbd0a3 } 
		.s16 { fill: #c37943 } 
		.s17 { fill: #fbcfa2 } 
		.s18 { fill: #f9cea1 } 
		.s19 { fill: #fbe2bf } 
		.s20 { fill: #fce2c0 } 
		.s21 { fill: #fbe1be } 
		.s22 { fill: #f7ddbb } 
		.s23 { fill: #010100 } 
		.s24 { fill: #96d529 } 
		.s25 { fill: #89c527 } 
		.s26 { fill: #030401 } 
	</style>
	<g id="surface1">
		<path id="Layer" class="s0" d="m130.5 149c1.3 2.3-0.1 3.6-1.7 5-5 4.6-10 9.3-15.1 13.9h-3.9c-1.4-0.8-3.3-0.8-4.4-2.1-3.5-4.4-8-4.5-13-3.5-7.9 1.6-16.1 1.5-24-0.1-4.4-0.8-8.1-0.5-11.3 2.9-1.3 1.3-3.2 1.8-4.6 2.8h-5q-19.1-17.8-38.3-35.6c-5.5-5.1-5.5-6.4-0.2-11.4 1.5-1.4 3.2-2.3 2.1-5.2-13.5-36.5 8.5-73.7 44.8-85.8 16.8-5.5 33.7-5.3 50.4 0.3 0.6 0.2 1.2 0.3 2.1 0.5 0-6.4 0.5-12.5 2.5-18.3 1.2-3.7 2.9-6 7.5-4.9 3.6 0.8 7.1-1.1 10.3-2.7 9-4.7 17.8-4.6 26.9 0 3.8 1.8 7.7 3.4 12.3 2.4 3.1-0.6 4.3 2.1 5.3 4.8 7.3 21.1 0.1 42.5-19 55.5-3.3 2.3-4 4-2.8 7.8 4.4 13 4 26.1-0.4 38.9-1.2 3.3-0.7 5 1.8 7.1 5 4.5 4.9 6.1-0.1 10.7-4 3.7-8 7.3-12 11.1-1.5 1.4-3 2.6-5.2 1.6-3.4-2.1-1.5-4.2 0.4-5.7q5-4.3 9.6-9.1c3.5-3.6 3.5-4-0.4-7.1-1.1-1-2.2-1.9-3.3-2.9-4.1-4.2-5-4.5-8.4-1.2-9.9 9.7-20.3 18.7-30.3 28.2-2.8 2.7-3.3 4.7 0.3 6.8q1.6 1.2 3 2.7c5.4 5.2 5.4 5.2 10.8-0.1 2.7-2.6 5.1-5.6 8.4-7.6 1.6-1 3.4-2.3 4.9 0.3z"/>
		<path id="Layer" class="s1" d="m52.5 167.9c2-2 4.3-3.9 6.2-6.1 1.7-2 3.7-2.2 6.1-1.6 10.5 2.4 21.3 2.4 31.7 0 2.7-0.6 4.7-0.2 6.6 1.9 1.9 2 4.4 3.9 6.6 5.8z"/>
		<path id="Layer" class="s2" d="m130.5 149c-2.1-1.2-3.6-0.2-5.2 1.2-2.5 2.3-5.1 4.6-7.6 6.8-4.5 1-5.9-2.8-7.8-5.3-2-2.4 0.3-4.3 1.9-5.8 9.1-8.8 18.7-17 27.7-25.8 0.8-0.8 1.8-1.5 3.1-1 8.8 7 8.8 7 1 14.3-2.4 2.3-4.8 4.5-7.3 6.7-1.5 1.4-2.3 2.8-0.8 4.6z"/>
		<path id="Layer" class="s3" d="m110.9 119.3c-1.1-0.5-2.1-1.3-3.3-0.7-5.3 2.9-11.1 2.4-16.8 2.3-6.9 0-12.7 2.8-17.6 7.7-1.3 1.2-2.7 2.3-4.1 3.5-2.5 1.3-4.1-0.5-5.6-1.8q-6.1-5.1-11.2-11.1c-3.9-4.5-1-11.6 5.8-14.6 1.3-0.6 2.9-0.5 4.2-1.1 6.1-2.8 11-8.2 18.5-8.4 1.5 0 3.5-2.2 3.5-3.8 0-5 3.4-6.9 6.9-9.3 3.3-2.1 3-5.9 2.8-9.4 1.8-3.2 3.7-6.4 7.8-7 1.1 2.6 2.8 3 5.1 1.6 2.4-1.4 4.8-1.5 6.8 0.6 2 2.1 1.4 4.2-0.1 6.2-0.8 1.1-1 2.1 0 3.1 0.9 1.1 2.5 1.2 3.6 0.4 2.4-1.5 4.9-2 7.2 0.1 2.2 2.2 1.5 4.5-0.2 6.7-0.7 0.7-0.7 1.9 0 2.7 0.7 0.9 2 1.3 3.1 0.7q1.3-0.7 2.6-1.2c2.5-0.7 4.7-0.3 6 2 1.3 2.2 0.5 4.2-1.2 5.8q-8.3 7.8-16.7 15.4c-1.7 1.5-3.2 2.9-2.2 5.5-0.8 2.2-2.1 4.1-4.9 4.1z"/>
		<path id="Layer" class="s4" d="m71.2 31.8c12.5-2.4 24.5-0.1 36.2 4.1 1.7 0.6 1.9 2 2.3 3.5 4.2 16.3 15.2 26.5 29.6 33.7 0.2 0.1 0.3 0.3 0.5 0.3 7.3-1.1 7.2 4.7 8.2 9.1 2.2 10.6 1.3 21-2.4 31.3-1.7-0.2-2.5-1.4-3.3-2.2-2.5-2.5-5.2-3.6-8.3-1.5-2.7 1.8-3.6-0.9-4.8-2-1.6-1.5 0.5-2.2 1.3-3 2.6-2.5 5.4-4.8 7.9-7.4 5.9-5.9 3.8-14.1-4.1-16.1-2.3-0.6-3.4-1.4-3.7-3.6q-0.1-0.5-0.3-1c-1.6-4.8-7.7-3.9-9.6-7.2-2.2-3.7-3.7-7.4-8.2-8.2-2-0.3-2.6-1.1-3.3-2.9-2.1-5.9-6-8.1-12.3-7-1.9 0.3-3.8 0-5.4-1-6.9-3.6-14.4-2-21.7-1.4-3.3 0.3-7.6-0.4-9.7 2.6-3.2 4.8-7.5 8.8-12.6 11.5-1 0.5-1.8 2.1-1.9 3.3-0.2 2.3-1.4 2.7-3.4 3.3-5.7 1.6-7.6 4.3-7.6 10.4 0 1.7-0.3 2.4-1.9 3.3-7.3 4.2-7.9 10.3-1.9 16.1 1.8 1.7 3.6 3.3 6.4 5.9-4.6-0.2-4.3 8.8-10.5 3.5-1.6-0.8-2.8-2.4-3-4.2-3.3-19.5 1.7-36.8 14.2-51.7 8.8-10.6 19.4-18.7 33.3-21.5z"/>
		<path id="Layer" class="s5" d="m71.2 31.8c-7.5 3.5-15.3 6.5-21.8 12-13.5 11.4-22.8 25.1-24.8 43.3-0.8 7.7-0.5 15 2.1 22.1-4.6-1.3-7.2 2.1-10.5 5-4.4-11.1-4.7-22.2-2.3-33.5 5.6-25.5 32.3-48.2 57.3-48.9z"/>
		<path id="Layer" class="s6" d="m127.5 10.9c8.6-5.2 17.3-6.6 26.5-1.5 3.6 2 7.5 3.4 11.7 3 2.3-0.2 2.4 1.3 2.9 2.6 6.3 17.7-1.6 39-18.2 48.9-5-2.3-10.3-4.3-12-10.4 2.7-1.6 6-1.1 9-2 3.9-1.2 7.5-3.4 10.2-6.5 2-2.2 3-4.7 1.5-7.6-0.3-1.7-0.3-3.5 0.1-5.3 1.6-4.6 0.4-8.5-4.2-11.6-7.2-4.8-14.8-5.8-22.8-2-1.7 0.8-3.2 2.4-5.4 1.7-2.6-3.3-1.5-6.3 0.7-9.3z"/>
		<path id="Layer" class="s7" d="m138.5 53.5c2.7 5 8.3 6.5 11.9 10.4-7.6 5.7-8.2 5.8-15.8 0.8-16.7-10.9-23.7-27.2-19.9-46.3 0.7-3.8 1.7-6.8 6.6-6.3 2 0.3 4.1-0.8 6.2-1.2 0.3 3-2.5 6 0 9 0.7 2-0.9 3-1.8 4.3-6 8.8-3.1 20.3 6.3 25.5 2.2 1.2 5.3 0.9 6.5 3.8z"/>
		<path id="Layer" class="s8" d="m95.8 155.4c-9.8 2.1-19.8 2.1-29.6 0.1 5.1-4.9 2.6-8.5-2-11.7 4.8-4.4 9.3-8.5 13.7-12.7 1.6-1.5 2.8-2.2 4.8-0.2 3.8 3.9 7.9 7.5 11.9 11.2 1 0.9 2.7 1.8 0.7 3.4-3.6 3-4 6.2 0.5 9.9z"/>
		<path id="Layer" class="s9" d="m29.8 119.2q15.9 14.6 31.9 29.1c1.7 1.4 1.8 2.5 0 3.8-1.9 1.5-3.7 3.2-5.5 4.8-1.9 1.4-3.5 0.5-4.8-0.8-8.5-8.2-17.5-15.8-25.9-24-5.5-5.4-3.6-10.8 4.3-12.9z"/>
		<path id="Layer" class="s10" d="m142.6 119.1c-5 4.6-10 9-15 13.6-4.9 4.5-9.7 9.3-14.8 13.7-3.2 2.8-3.2 4.9 0.1 7.4 1.6 1.1 2.5 3.1 4.8 3.3-5.9 6.2-5.9 6.3-11.8 0.6-2.5-2.5-7.4-4.5-7.1-7.4 0.3-2.8 4.6-5.2 7.2-7.7q13.1-12.1 26.2-24.2c5.3-4.9 5.3-4.8 10.4 0.7z"/>
		<path id="Layer" class="s11" d="m29.8 119.2c-8.7 6.8-8.8 7-1 14.5 7.9 7.5 15.9 14.7 23.9 22 0.9 1 2.2 1.4 3.5 1.2-6 6.2-6 6.2-12.1 0.7-10.4-9.5-20.5-19.1-30.9-28.4-2.4-2.2-2.4-3.4 0.1-5.3q3-2.5 5.8-5.3c5.5-5.1 5.5-5.1 10.7 0.6z"/>
		<path id="Layer" class="s12" d="m62.3 103.5c-1.4 0.9-2.8 1.6-4.2 2.4-8.1 5.3-8.6 9.1-1.8 15.8 4 3.8 7.2 8.7 12.8 10.4-8.4 8.4-8.4 8.4-16.8 0.6-5.1-4.7-10.2-9.3-15.2-14.1-1.2-1.1-4.4-2.1-2.6-4.2 1.9-2.3 3.6-6 7.5-5.3 5.6 1 9.9 0 13.2-5.1 1.8-2.8 4.8 0.3 7.1-0.5z"/>
		<path id="Layer" class="s13" d="m110.9 119.3l4.9-4.2c2.7 1.2 4.5-0.3 6-2.1 1.9-2.1 3.2-1.9 5.2 0 2.8 2.6-0.1 3.3-1.2 4.4-5.6 5.1-11.2 10.1-16.8 15.2-2.6-1.8-6.1-3-5.2-7.2 2.6-1.8 7.8-0.5 7.1-6.1z"/>
		<path id="Layer" class="s14" d="m103.8 125.4c0.5 3.3 4.2 4.2 5.2 7.2-8 8.5-8 8.5-16.4 0.6l-7-6.4c6.4-2.1 12.5 0 18.2-1.4z"/>
		<path id="Layer" class="s15" d="m79.2 89.5c-2.1 3.3-5 3.2-7.5 1-6.7-5.8-13.2-11.9-19.6-17.9-1.8-1.7-2.4-3.7-0.8-5.7 1.7-2.1 3.7-3.3 6.3-1.4-0.9 2.8 0.7 4.5 2.6 6.3 6.3 5.9 13 11.4 19 17.7z"/>
		<path id="Layer" class="s16" d="m101.8 65.6l-7.8 7q-0.6-0.8-1.1-1.7c-1.3-2.3-5.6-3.9-4.6-5.8 1.8-3.2 5.2-5.7 8.3-8.1 1.9-1.5 4.7-1.1 6.2 0.7 2.7 3 0.7 5.5-1 7.9z"/>
		<path id="Layer" class="s17" d="m64.6 96.6c-2.4 2.9-5.1 2.6-7.6 0.4-5.2-4.6-10.3-9.2-15.3-14.1-3.7-3.6-2.5-6.6 2.9-8.2 3.2 8.7 11.9 12.4 17.4 19.1 0.8 0.9 2.1 1.5 2.6 2.8z"/>
		<path id="Layer" class="s13" d="m79.2 89.5c-4.4-1.7-7.1-5.6-10.6-8.3-3.7-2.8-6.6-6.7-10.4-9.6-1.6-1.2-5.4-3.6-0.5-6.1 7.6 5.5 14 12.5 21 18.9 1.5 1.3 2.3 3.2 0.5 5.1z"/>
		<path id="Layer" class="s18" d="m87.2 78.6c-2.5 2.6-5.1 1.7-7.3-0.3-5.7-5-11.2-10.1-16.7-15.3-3.2-3.2-2.7-5.4 1.6-7.9 1.7 9.7 4.8 12.3 14.7 12.6 1.2 0 2.7-0.6 3.6 0.9-1.9 1.8-3.9 1.1-5.3 0.5 4 2.2 7.2 5.5 9.4 9.5z"/>
		<path id="Layer" class="s19" d="m79.9 53.7q0.5-0.1 1 0c2.9 0.4 6.5-1.4 8.5 2.1 0.7 1.3-7.2 6.9-9.7 7-3.4 0.1-6.7 0-8.5-3.5-1.8-3.6-0.8-5.5 3.3-5.6 1.8 0 3.6 0 5.4 0z"/>
		<path id="Layer" class="s20" d="m64.6 96.6c-1.1-0.1-2.2-0.6-3-1.5-4.7-4.3-9.3-8.8-14.1-13-2.2-2-3.4-4.3-2.9-7.4 2-0.4 3.3 1 4.6 2.2 4.7 4.3 9.4 8.6 14 12.9 2.1 2 3.6 4 1.4 6.8z"/>
		<path id="Layer" class="s17" d="m49.7 102.5c-2.5 3.3-5.3 2.6-8 0.4-2.6-2.1-4.8-4.5-7.3-6.7-1.9-1.7-2.9-3.9-1.5-6.1 1.4-2.3 3.8-3.6 6.6-1.6-1.7 2.3-0.4 3.9 1.3 5.4q4.8 3.9 8.9 8.6z"/>
		<path id="Layer" class="s21" d="m49.7 102.5c-5.2-2.2-8.3-6.8-12.1-10.4-1.8-1.7-1.2-3.7 1.9-3.6 3.7 2.1 6.5 5.5 9.6 8.3 1.8 1.6 2.1 3.6 0.6 5.7z"/>
		<path id="Layer" class="s22" d="m87.2 78.6l-11-10h6.9c2.1 1.5 4.2 3.1 5.4 5.4 0.4 0.8 0.6 1.7 0.3 2.6-0.2 0.9-0.8 1.6-1.6 2z"/>
		<path id="Layer" class="s23" d="m138.5 53.5c-6.9-2.1-13.1-5.2-15.9-12.5-3.2-8.1-0.8-15 4.9-21.1 13.5-10 28.3-3.9 33.3 5.5 1.2 2.3 2.5 4.6-0.7 6.3-3 1.6-3.6-1.1-4.7-2.7-2.8-3.9-6-7.3-11.3-7.7-0.5 0-1-0.1-1.5 0-9.2 0.1-15.4 6-14.7 13.9 0.8 8 8.3 13.1 17.2 11.7 3.8-0.8 7.2-3.1 9.6-6.3 1.2-1.6 2.3-4.3 5.3-2.6 2.5 1.9 1.5 3.9 0.1 5.9-5.2 7.7-12.8 10.1-21.6 9.6z"/>
		<path id="Layer" class="s24" d="m144.4 20.1c5.4 0.3 9.1 3.2 11.8 7.7 1 1.8 1.6 3.7 3.9 3.9l-0.1 6.3c-2.3-0.2-3.2 1.5-4.3 3.2-2.3 3.7-5.5 6.3-10 6.7-4.2 0.4-6.2-1.8-6.8-5.7 4.2-3.9 9.1-7.1 13.2-12.2-3.8-0.6-5.2 1.6-6.9 3.2-4.5 4-5.7 3.9-8.7-1.5 0.2-6.1 2.6-9.7 7.9-11.6z"/>
		<path id="Layer" class="s25" d="m139.5 41.5c0.6 3.6 2.9 5.4 6.2 6.4-6.7 2-12-0.3-16.2-5.3-3.7-4.5-4.2-9.7-1.4-14.8 3.6-6.3 9.2-8.7 16.3-7.7-4 3-7.1 6.6-7.1 12-1.5 0.5-3.5-1.8-4.4 0.1-0.9 2.1 1.8 2.7 2.9 3.9 1.4 1.7 3.7 2.8 3.7 5.4z"/>
		<path id="Layer" class="s26" d="m139.5 41.5c-2.1-2-4.3-4-6.4-6.1-1.3-1.2-3.8-2.4-1.7-4.7 1.9-2 3.6-0.4 5.1 0.9q0.4 0.3 0.8 0.5c2.1 3.5 4.3 3.7 7 0.5 1.6-1.8 3.3-3.3 5.2-4.6 1-0.7 2.4-0.5 3.2 0.3 0.8 0.8 1 2.1 0.3 2.7-4.3 3.7-7.1 9.5-13.5 10.5z"/>
	</g>
</svg>