<svg version="1.2" xmlns="http://www.w3.org/2000/svg" viewBox="0 0 182 168" width="179" height="165">
	<title>calidad-svg</title>
	<style>
		.s0 { fill: #000000 } 
		.s1 { fill: #f6f6f6 } 
		.s2 { fill: #fcb341 } 
		.s3 { fill: #ee7180 } 
		.s4 { fill: #e95468 } 
		.s5 { fill: #fde87c } 
		.s6 { fill: #f0afa1 } 
		.s7 { fill: #89c8fd } 
		.s8 { fill: #fde35a } 
		.s9 { fill: #ea9b8c } 
		.s10 { fill: #fbe159 } 
	</style>
	<g id="surface1">
		<path id="Layer" class="s0" d="m22.9 80.1c-1.5-1-2.3-2.4-1.3-4.2 3.7-7.5 1.4-14.7-1.2-21.8-1.4-3.8-0.9-6.6 2.5-8.9 8.1-5.5 12.8-13.3 14.2-23 0.5-3.2 2-5.1 5.4-5.3 0.9-0.1 1.9-0.7 2.8-0.8 11.4-0.8 18.9-8 25.9-15.9h4c5 1.2 10.3 1.4 15.3 3.1 2.4 0.8 4.8-0.9 7.2-1.5 3.3-0.7 6.8-0.5 10.1-1.6h3.9c7.1 8.4 15 15.1 26.4 16 4.9 0.4 7.7 2.9 8.3 7.9 1 9.3 6.5 15.8 13.7 21.1 3.1 2.3 4.1 4.8 2.5 8.4-4 8.7-3.8 17.5 0 26.1 1.5 3.3 1.1 6-2.1 8.1-0.8 0.5-1.4 1.4-2.2 2-6.9 4.7-10.7 11.4-11.8 19.5-0.8 5-3.4 7.5-8.3 7.9q-0.8 0-1.5 0.2c-6.1 1.6-5.9 1.6-4.4 7.8 0.6 2.6 3.3 5.4 0 8.1-2.4 1.2-3.7-0.2-4.7-2q-1.3-2.7-1.9-5.5c-0.4-2-0.9-4-3.2-1.3-0.5 0.6-1.1 1.1-1.7 1.7-7.6 7.6-7.8 7.6-18.9 7.2 1.9 7.7 4.5 15 6.6 22.9 3.4-2.2 5.3-5.2 8-7.3 5.8-3.2 10.8 1 16.4 1.7-0.5-2.1-1.3-4.3-1.8-6.6-0.5-2.2-0.3-4.3 2.5-5 2.1 0 3.2 1.2 3.8 3.2q1.7 6.2 3.5 12.3c1.1 3.7-0.8 4.7-3.9 3.9-4.4-1.1-8.9-2.3-13.2-3.9-2.3-0.8-3.6-0.4-5.1 1.3-2.3 2.5-4.9 4.9-7.3 7.4-5.1 5.2-6.3 4.9-8.4-2.3-2.7-9.5-5.4-19-8.2-28.5-0.4-1.6-0.5-3.6-3.1-3.6-2.8-0.1-3.1 1.9-3.6 3.8-3 10.1-5.8 20.2-8.9 30.3-1.3 4.6-2.9 4.9-6.4 1.6q-0.2-0.1-0.3-0.3c-6.3-10-14.8-11.4-24.9-6.4-1.5 0.8-3.4 1.7-5.1 0.2-1.9-1.6-0.4-3.4 0-5 2.9-10.1 5.8-20.2 8.9-30.3 0.8-2.7 0.7-4.4-2.5-4.6-8.2-0.5-12.7-4.6-13.5-12.9-0.6-5.8-4-9.9-8.4-13.4-1.6-1.1-4-2.3-2.5-5.1 1.5-3 3.4-1.8 5.2-0.5 6.1 4.1 10.9 9.2 11.9 16.8 0.7 5.5 3.7 8.6 9.3 9.1 8.3 0.7 14.1 5.8 19.7 11.2 2.5 2.2 4.9 3 8.1 2 8.7-2.8 17.4-3.2 26.1 0.1 2.8 1 5.1 0.2 7.2-1.9 6.2-6.4 13.5-10.9 22.6-12 3.6-0.4 5.5-2.7 6.1-6.2 1.4-8.2 5.4-14.7 12.4-19.4 2.6-1.7 3.6-4.1 2.4-7.3-0.6-1.7-0.8-3.6-1.5-5.2-2.1-4.4-2-9.4 0.1-13.8 0.7-1.8 1-3.8 1.6-5.7 0.8-2.6 0.2-4.7-2-6.1-7.6-5-11.8-12.2-13.4-21.1-0.3-2.5-2.3-4.6-4.9-4.9q-1.6-0.5-3.3-0.8c-8.2-0.5-14.1-5.2-19.4-10.7-2.6-2.7-5.2-3.7-8.8-2.4-7.9 3.1-16.6 3.2-24.6 0.1-3.7-1.4-6.5-0.4-9.2 2.4-5.6 5.7-12 10.3-20.3 11-4.5 0.5-7.2 3-7.9 7.5-1.2 7.9-5.4 13.7-11.8 18.1-3.1 2.1-3.7 4.7-2.4 8.1 2.6 7 4 14 0.6 21.2-1.1 2.3-2.1 4.7-5.4 3.7z"/>
		<path id="Layer" class="s1" d="m107.8 0.2c-10.9 5-21.7 5.1-32.6 0z"/>
		<path id="Layer" class="s2" d="m22.9 80.1c1.8-0.1 3.1-0.8 3.7-2.7 1.8-5.9 4.2-11.9 0.9-18-3.3-6.4-2.3-11.5 4.1-15.2 6.8-4.1 8.1-11.3 9.8-18.1 0.8-3 2-4.8 5.4-5.2 9.4-0.9 18.1-5.6 24-13 1.9-2.3 4.1-2.5 6.6-1.6 9 3.6 19.2 3.6 28.2 0 2.3-0.9 4.4-0.8 6.1 1.4 6.5 7.9 15 12.1 25 13.3 2.8 0.3 4.1 1.8 4.5 4.3 1.3 9.7 6.4 17.1 14.3 22.6 2.3 1.6 2.7 3.5 1.6 5.9-3.9 8.5-4.1 17.1-0.1 25.6 1.2 2.5 0.9 4.7-1.6 6.3-1.1 0.7-1.9 2-3 2.7-7.1 4.4-9.3 11.5-10.9 19-0.7 3.2-2.1 4.9-5.4 5.3-9.8 1-17.7 5.5-24.1 12.9-1.6 2-3.4 2.7-6 1.7-9.2-3.6-19.5-3.6-28.8 0-2.4 0.9-4.3 0.7-6.1-1.4-6.2-7.6-14.2-12.1-24-13-3.9-0.4-5.2-2.7-5.8-6-1.4-8-4.9-14.5-11.7-19.2-1.7-1.2-3.1-2.4-5.1-0.8-2.2-1.9-2.7-4.2-1.6-6.8z"/>
		<path id="Layer" class="s3" d="m133.6 139.1c-2.3 1.5-1.8 3.5-1.1 5.6 0.8 2.3 1.4 4.7 2.3 7.9-4.3-1.2-8-2.2-11.6-3.3-2.3-0.8-4.5-0.8-6.4 0.9-3.4-3.4-3.4-8-4.4-12.2-0.1-0.6 0-1.3 0.5-1.8 3.8-4.6 7.7-9 13.6-11.1q1.1 2.7 1.9 5.5c0.6 2.2 1.9 2.8 3.9 2.7q0.7 2.9 1.3 5.8z"/>
		<path id="Layer" class="s4" d="m64.3 148.8c-5.4-0.1-10 2.8-16.1 3.6 3.1-10.7 6.2-21.2 9.4-32.2 3.3 3 6.4 5.4 9 8.4 3.7 4.3 7.8 5.4 13 3.1q1.7-0.5 3.5-0.7c-0.7 2.1-1.3 3.7-1.8 5.3-3.2 1.1-6.5 2.4-9.9 2.3-2.6-0.2-3.3 1.1-4 3.1-0.8 2.5-1 5.2-3.1 7.1z"/>
		<path id="Layer" class="s4" d="m126.5 125.1c-2.6 2.2-5.1 4.6-7.9 6.5-4.9 3.4-6 7.6-3.6 13q1.1 2.8 1.8 5.6l-8.6 9.2c-2.9-9.7-5.5-18.7-8.2-27.9 4.7-1.1 9.4 4.3 13.9-0.7 3.3-3.6 7.2-6.6 11-10 1.2 1.1 1.8 2.7 1.6 4.3z"/>
		<path id="Layer" class="s3" d="m64.3 148.8q1.5-5.5 3-10.9c0.2-0.6 0.5-1.7 1-1.4 4.5 3 8.6-1.9 13-0.3-2.1 7.4-4.1 14.8-6.3 23.1z"/>
		<path id="Layer" class="s0" d="m122.7 28c2.9-2.4 4.9-0.2 6.8 1.5 24.5 21.3 22.9 57.8-3.3 77-22.8 16.8-55.4 14.7-75.1-4.8-21.4-21.2-20-54.2 3.5-73.1 17.3-13.8 36.8-16.2 57.7-9.3 2 0.7 4.7 1.3 3.6 4.7-1.3 2.6-3.5 1.9-5.5 1.3-4.4-1.3-8.7-2.8-13.3-2.9-20.5-2.6-39.6 7.4-48.9 23.3-2.1 3.8-1.7 4.6 2.5 4.7 7.3 0.2 14.5-0.2 21.7 0.2 6.2 0.7 14.1-5.5 15.8-12.4q0.4-1.9 0.5-3.9c0.4-3.9 2.2-6.6 6.1-7.4 4.1-0.7 7.6 0.3 9.8 4.1 2.8 4.8 3.3 10.3 3 15.8-0.2 5.3-0.1 5.5 5.3 5.6 3.1 0 6.2-0.2 9.3 0.1 6.4 0.6 9.8 5.7 7.4 11.5-1.6 4.2-1.6 8.7-2.3 13-0.9 4.8-2.7 9.5-2.7 14.5-0.1 4.2-3.9 8-8.8 7.9-12.2-0.2-24.6 2.6-36.6-2.1-1-0.6-2.3-0.3-3.1 0.5-1.9 2.7-4.6 2.9-7.5 2.9-2.8 0-5.5-0.1-9.1 0 11.4 8.4 23.2 11.6 36.3 10.7 14.3-1.2 26.4-7 35.2-18.4 14.4-18.4 11.8-42.9-5.5-58.7-1.8-1.6-4.9-2.8-2.8-6.3z"/>
		<path id="Layer" class="s5" d="m122.7 28c-0.5 2.3 1.1 3.3 2.4 4.5 15.2 13.2 20.3 31.4 14 48.9-6.3 17.5-24.3 30.4-43.1 31-7.9-1.8-13.9-6.7-19.7-11.9-1-0.8-1.8-1.9-1.3-3.4-0.7-3.1 0.9-3.1 3-2.1 12.3 6.2 25.5 2.4 38.2 3 5.1 0.2 7.9-4.2 6.9-9.2-0.2-1.5-0.3-2.4 0.8-3.5 0.4-0.3 0.8-0.7 0.8-1.2 0-5.3 2.8-10.3 2.3-15.6-0.2-1.2 0.1-2.5 0.8-3.5 3.4-5.6 0.6-11-6.1-11.5q-6.1-0.4-12.3 0c-3.6 0.3-4.1-1.2-3.5-4.3 1.2-5.3 0.1-10.5-1.3-15.6-1.2-4.2-4.1-6.3-8.5-5.8-4.5 0.5-6.3 3.2-6.4 7.7-0.2 7-7.3 15.7-13.8 17.7-1.9 0.6-2.2-1.8-3.8-1.6-7.7-0.7-7.8-1.1-3.7-8.2 4.9-8.6 12.3-15.6 21.1-20 2.4-1.3 4.9-1.6 7.4-2.3 4.9-0.2 9.5 1.5 14 3.1 1.8 0.6 3.3 1.3 5-0.1 2.6 0.7 5.2 1.5 6.8 3.9z"/>
		<path id="Layer" class="s6" d="m100 50.8q0 1-0.2 2c-2.2 4.5 0.2 5.5 4.1 5.4 5.1-0.1 10.2-0.1 15.3 0 1.9 0 4.5-0.4 4.6 2.4 0 3.2-2.7 2.7-4.8 2.8-1.1 0-2.3 0-3.4 0-1.7 0-3.7 0.2-3.6 2.4 0.1 2 2 2.2 3.7 2.4 2.3 0.4 6.4-1.4 6.2 2.7-0.2 3.6-4.1 2.2-6.5 2.4-1.5 0.2-3.2 0.2-3.4 2.1-0.1 2.2 1.6 2.6 3.3 2.8 0.7 0.1 1.4 0 2 0 1.6 0.1 3.1 0.7 3.1 2.5-0.1 1.7-1.6 2.3-3.1 2.6-2.4 0.5-6.3-1.5-6.8 2-0.5 4 3.8 2.3 5.9 3.2 2.1 0.8 2.5 2.4 0.5 4-7.9 0.8-15.8 0.4-23.7 0.3-4.2-0.1-6.9-2.8-7.3-7.3-0.7-7.6-0.7-15.2 0.1-22.7 0.8-6.4 8.4-12.4 14-12z"/>
		<path id="Layer" class="s7" d="m69.4 75.6c0 5.3-0.1 10.6 0 15.8 0.1 2.4-0.7 3.3-3 3.1-2.6-0.2-5.3-0.4-7.9 0-6.4 1.2-9.5-2.3-12.1-7.4-4.4-8.4-5.6-17.1-4.8-26.4 0.3-2.8 1.1-4.4 4.6-4.2 6.5 0.3 13.2 0.2 19.8 0 2.8-0.1 3.6 0.9 3.5 3.6-0.3 5.2-0.1 10.4-0.1 15.5z"/>
		<path id="Layer" class="s8" d="m96.9 21.1c-6.3 3.1-12.6 6.1-17.9 10.9-5.1 4.6-8.7 10.2-11.8 16.1-1.1 2-0.3 2.7 1.7 2.7 1.1 0 2.3-0.2 3.2 0.8-8.2 0-16.4 0-24.6 0.2-3.6 0.1-3.2-1.3-2-3.7 6.9-13.8 18.2-22.2 32.9-26 6.1-1.5 12.3-2.3 18.5-1z"/>
		<path id="Layer" class="s9" d="m100 50.8c-10 3.9-12.9 8-12.9 18.2 0 5-0.1 10 0 14.9 0.1 5.6 2.9 8.4 8.6 8.5 7 0.1 14.1 0.1 21.2 0.1-5.1 1.9-10.4 0.7-15.5 0.8-8 0.2-16 0.8-23.5-3.4-2-1.1-3.2-1.5-3.1-3.9q0.2-11.2 0-22.3c-0.2-2.2 0.9-4.2 2.7-5.4 3.2-2.3 6.4-4.6 9.6-7 5-3.8 8-8.6 7.9-15.1 0-1.4-0.3-3.2 1.7-3.5 2.1-0.4 2.6 1.2 2.9 2.6 1.3 5.2 2.3 10.3 0.4 15.5z"/>
		<path id="Layer" class="s10" d="m75 97.1c4.6 6.2 11.2 9.8 17.8 13.2 1.2 0.6 2.5 0.9 3.2 2.1-12.1 2.4-29.5-3.1-39.5-13 4.9 0 9.3-0.1 13.6 0 2.1 0.1 3.9-0.2 4.9-2.3z"/>
	</g>
</svg>