<svg xmlns="http://www.w3.org/2000/svg" viewBox="0 0 174.27 172.24"><defs><style>.cls-1{fill:#040404;}.cls-2{fill:#fdfdfd;}</style></defs><title>carritoRecurso 9</title><g id="Capa_2" data-name="Capa 2"><g id="Capa_2-2" data-name="Capa 2"><path class="cls-1" d="M149.28,23.57c-32.45-.18-64.9,0-97.35-.06-6.6,0-14.46,2-15.46-8.33C34.46-5.67,18.62,1.28,6.77.54,3.79.36.26,1.47,0,5.41c-.31,4.9,3.67,7.06,7.25,6.36C24.9,8.33,25.82,20.71,28.41,32.56c3.85,17.62,8.7,35,12.66,52.63,1.24,5.54,4.26,11.49-4.36,15.69-8,3.89-10.76,11.77-7,20.69,3.66,8.76,11,11.2,19.68,11.21H92.42c14.35,0,28.71.26,43.05-.13,5.55-.15,14.75,2.91,14.39-6.52-.29-7.81-8.83-4.71-13.76-4.76-28.08-.32-56.16-.12-84.24-.21-4.84,0-11.23.48-10.5-6.84.61-6,6.62-4.42,10.64-4.46,16.22-.2,32.45,0,48.67-.11,69.31-.56,54.46,8.09,71.68-57.36C178,31.06,171.53,23.7,149.28,23.57Zm12.36,22.66c-3.46,14.5-7.47,28.88-10.5,43.47-1.8,8.7-7.85,8.37-14.13,8.38-23,0-46.09-.3-69.13.19-8.14.17-12.7-2-14.46-10.45-3.55-17-7.73-33.82-12.11-52.67,38.3,0,75.51,0,112.72,0C162.25,35.11,163.14,39.92,161.64,46.23Z"/><circle cx="62.92" cy="155.44" r="16.8"/><circle class="cls-2" cx="62.92" cy="155.44" r="6.56"/><circle cx="128.45" cy="155.44" r="16.8"/><circle class="cls-2" cx="128.45" cy="155.44" r="6.56"/></g></g></svg>