<svg version="1.2" xmlns="http://www.w3.org/2000/svg" viewBox="0 0 182 168" width="179" height="165">
	<title>cesta-svg</title>
	<style>
		.s0 { fill: #7290ea } 
		.s1 { fill: #e77187 } 
		.s2 { fill: #5c78c0 } 
		.s3 { fill: #b0b5c9 } 
		.s4 { fill: #67c8c8 } 
		.s5 { fill: #b1b5ca } 
		.s6 { fill: #7cadc2 } 
		.s7 { fill: #7ce5e7 } 
		.s8 { fill: #c1586f } 
		.s9 { fill: #607dc6 } 
		.s10 { fill: #607dc5 } 
	</style>
	<g id="surface1">
		<path id="Layer" class="s0" d="m149.2 57.5c7.8 0 15.5 0.2 23.3 0.1 3.2 0 3.5 0.9 2.5 3.7-6.1 17.2-12.1 34.5-18.2 51.6-2.3 6.5-7.4 9-13.9 9-24.9 0.1-49.7 0.1-74.6 0.1-5.5-8.7-8.5-18.6-12.1-28.2-3.8-9.9-7.2-20-11-29.9-0.7-1.9-2.1-3.9-0.6-6.1l11.8-0.3c3.6-2.1 7.5-1 11.3-1.2 25.5-0.3 51-0.1 76.4-0.1 1.8 0 3.6 0.1 5.1 1.3z"/>
		<path id="Layer" class="s1" d="m149.2 57.5q-40.9 0.5-81.9 0c-2.1-2.4-1.4-5.3-1.4-8 0-3.4-0.9-5.4-4.7-5.2-1.7 0.3-3.3-0.2-4.6-1.3 6.1-2.2 12.4 0 18.6-0.9 6.2-0.9 12.5-0.9 18.7 0.1 16.8 0 33.6 0.1 50.3-0.1 3.8 0 5.5 0.9 5.1 5-0.3 3.4-0.1 6.9-0.1 10.4z"/>
		<path id="Layer" class="s2" d="m44.5 57.8c6.6 18 13.1 36.1 19.8 54.1 1.3 3.4 2.7 6.8 6.9 8.1l-2.8 2v0.1c-4 1-8.1-0.1-11.1-2.8-4-3.4-4.9-8.5-6.6-13-5.5-14.9-11-29.8-16.6-44.6-1.4-3.7-0.6-4.9 3.2-4.4 2.1 0.2 4.2-0.3 6.3 0.3q0.5 0 0.9 0.2z"/>
		<path id="Layer" class="s3" d="m57.5 118.9c3.5 1.4 6.8 3.3 10.8 3.3-1.4 1.6-3.3 0.9-5.1 1-5.2 0.3-8 2.7-7.8 6.9 0.1 3.7 2.8 5.8 8.1 5.8 29.8 0 59.5 0 89.2 0.1 2.1 0 6-1.4 5.9 1.3-0.1 3.1-3.9 1.1-6.1 1.6q-2 0.2-3.9 0c-3.5 2.2-7.9 2.2-11.3 0q-26.6 0-53.1 0c-1.7 0-3.7-0.7-5.1 1-4 0.7-8 0.7-11.9-0.1-1.3-1.5-3.1-0.8-4.7-0.9-4.9 0-8.5-1.8-10.4-6.6-1.8-4.6 0.7-7.6 3.8-10.3q0.8-0.9 1.5-1.9c-0.3-0.1-0.4-0.4-0.3-0.6 0-0.3 0.1-0.5 0.4-0.6z"/>
		<path id="Layer" class="s4" d="m93.9 42.2c-6.2 0.9-12.5 0.9-18.7-0.1 0-7.4 0.2-14.8-0.1-22.2-0.2-4 1.3-5.2 5-4.7 2 0.2 3.9 0.1 5.9 0.2 1.5 1.5 1.5 3.6 1.5 5.5 0.1 3.5 0.3 6.9 0 10.4-0.4 5.1 0.1 9.5 6.2 10.6z"/>
		<path id="Layer" class="s5" d="m57.5 118.9l-0.1 1.2c-2.7-1.6-4.1-4.1-5.1-6.9q-13.3-36.1-26.7-72.2c-2.4-6.4-4.7-7.7-12.9-8-2.4-0.1-6.8 1.9-7-1.6-0.1-2.6 4.4-1.2 6.8-1.3 10.8-0.1 13.6 1.8 17.1 11.8 0.5 1.4 1.2 2.7 1.6 4.2 1.6 6.6 3.8 12.4 12.4 11.5q-0.5 0.2-0.9 0.2c-9.1 0.4-9.1 0.4-5.8 9.2 5.5 14.8 11.1 29.7 16.5 44.6 1 2.8 2.7 4.9 4.1 7.3z"/>
		<path id="Layer" class="s6" d="m67.2 139.8c3.8-1.4 8.1-1.4 11.9 0 3.8 5 3.8 8.3 0 11.6-3.6 3.2-9.1 3-12.5-0.4q-4.8-4.8 0.6-11.2z"/>
		<path id="Layer" class="s6" d="m137.3 138.9h11.3c2.9 3.5 4.5 7.4 1.4 11.5-2.8 3.6-6.8 4.2-11 2.3-5.5-2.4-6.1-7.7-1.7-13.8z"/>
		<path id="Layer" class="s7" d="m93.7 41.9q-1.2 0-2.4 0.1c-4 0.6-5.5-0.8-5.3-5.1 0.3-7.1 0-14.3 0-21.5q0.3-0.1 0.5-0.1c7.5-0.3 7.5-0.3 7.5 7-0.1 6.5-0.2 13.1-0.3 19.6z"/>
		<path id="Layer" class="s8" d="m56.6 43c10.7 0 10.7 0 10.7 10.5v3.9h-11q0.2-7.1 0.3-14.4z"/>
		<path id="Layer" class="s9" d="m76.2 90.4q0 8.4 0 16.8c0 2.4-0.8 4.5-3.3 4.7-1.2 0.1-2.4-0.3-3.2-1.1-0.9-0.8-1.3-2-1.3-3.1q-0.2-17.3 0-34.6c0-1.1 0.4-2.3 1.3-3.1 0.8-0.8 2-1.2 3.2-1.1 2.5 0.2 3.3 2.3 3.3 4.7-0.1 5.6 0 11.2 0 16.8z"/>
		<path id="Layer" class="s9" d="m108.8 90.6q0 8.2 0 16.3c0 2.6-0.7 5-3.5 5-2.8 0.1-4.4-2.1-4.4-4.9q-0.1-16.5 0-33.1c0-2.8 1.5-5.1 4.4-5 3.1 0.1 3.5 2.8 3.5 5.5-0.1 5.4 0 10.8 0 16.2z"/>
		<path id="Layer" class="s10" d="m141.4 90.5q0 8.2 0 16.3c0 2.7-0.6 5.2-3.8 5.1-3.1-0.1-3.2-2.6-3.2-5.1q0.1-16.5 0-32.9c0-2.6 0.4-5 3.4-4.9 2.8 0 3.6 2.2 3.6 4.8 0 5.6 0 11.2 0 16.7z"/>
	</g>
</svg>