<svg xmlns="http://www.w3.org/2000/svg" viewBox="0 0 522.63 81.6"><defs><style>.cls-1{fill:#fefefe;}.cls-2{fill:#fde84e;}.cls-3{fill:#fefefa;}.cls-4{fill:#fefefb;}.cls-5{fill:#e3e6ea;}</style></defs><title>estrellasRecurso 13</title><g id="Capa_2" data-name="Capa 2"><g id="Capa_2-2" data-name="Capa 2"><path class="cls-1" d="M19,80.72c-6,0-14.44,2.36-17.46-.66S.88,68.64.88,62.6c0-18.46.31-36.93-.18-55.38C.53,1.18,1.92,0,7.93,0Q197.74.33,387.56.17c43,0,85.93.1,128.89-.14,5,0,6.25,1.13,6.18,6.18q-.46,34.23,0,68.47c.07,5-1.14,6.21-6.18,6.18-41.62-.24-83.24-.14-124.87-.14-1.11-3.12,2-5.94,1.08-8.73-4.5-14.29-1-25.44,10.9-35,4.58-3.67.62-8-4.14-7.67-13.25.9-20.24-5.29-24.35-17.39-2.39-7-6.36-6.8-10.35-.4A24.5,24.5,0,0,0,362.2,17c-2.59,8-8,11.89-16.47,12-3.83,0-8.85-1-10.49,3.77-1.75,5.07,2.61,8.06,6.08,10.43,7.16,4.9,9.14,11.07,6.23,19.08-1.88,5.18-1.31,10.54-.95,15.88a5.82,5.82,0,0,1-1.34,2.61H280.82c1.06-7.26,1.59-14.46-.93-21.61-1.75-5-.32-9.13,3.83-12.47a65.09,65.09,0,0,0,7.22-7c1.8-2,4.16-3.93,3.3-6.89-1.06-3.59-4.53-4-7.46-3.7-11.65,1.06-18.18-4.55-21.49-15.25-.93-3-2.1-7.11-6.27-6.79-3.76.29-5.36,4-6.3,7.14-3.14,10.39-9.57,15.66-20.71,14.9-2.95-.2-6.33.12-7.63,3.55s.63,6.31,3.14,7.82c10.87,6.53,12.26,15.61,8.24,26.68-1.28,3.52.2,7.31.07,11a5.75,5.75,0,0,1-1.33,2.61H178.1a5.75,5.75,0,0,1-1.31-2.59c-.15-1.67.24-3.33.23-5C177,58.37,179.51,49.92,188,37.76c3.24-4.65,2.11-7.45-3.34-8.55a44.69,44.69,0,0,0-8-.39c-6.7-.12-11.51-2.87-14-9.36a41.25,41.25,0,0,0-5.11-9.78c-3.05-4.11-5.9-4-8.31.64a54.09,54.09,0,0,0-2.39,5.54c-3.36,8.7-9,13.82-19,13.15-3.49-.24-8-.72-9.4,3.81-1.14,3.77,2.25,6.18,4.7,8.24,8.06,6.78,11,14.85,7.55,25-1.35,3.93-.88,8,.08,11.92a3.86,3.86,0,0,1-.91,2.69H67.34A5.67,5.67,0,0,1,66,78.13c-.15-1.67.24-3.34.23-5-.07-14.71,2.49-23.19,11-35.37,3.25-4.68,2-7.42-3.37-8.55a24.28,24.28,0,0,0-6-.32c-8.43.4-14.12-3.13-16.85-11.29a27.41,27.41,0,0,0-3.18-6.27c-4.21-6.44-7.38-6.46-10.11.93-4.2,11.37-10.7,18-23.77,17C9,28.87,3.75,32.61,9.09,37.12,20.78,47,23,58.35,18.82,72.11c-.56,1.89.58,3.94,1,5.91A3.51,3.51,0,0,1,19,80.72Z"/><path class="cls-2" d="M345.24,78.77c-4.94-6.44-1.43-13,.35-19.16s.87-10.18-4.61-13.46c-2.26-1.35-4-3.53-6.09-5.2-3.13-2.5-5-5.6-3.77-9.59,1.3-4.38,5.35-5.22,8.94-4.77,12.53,1.56,19.24-4.17,22.31-15.9,1-3.72,2.77-8.14,7.66-8.18s6.55,4.52,7.48,8.24c3,11.87,9.8,17.45,22.3,15.78,3.73-.5,7.52.6,9.28,4.51,1.93,4.3-.89,7.19-4,9.24-10.52,7-15.26,15.54-9.66,28.2,2,4.56.38,9.09-3.88,12.24h-4c-3.3-2.29-7.39-2.91-10.67-5.34-4.84-3.59-9.8-3.35-14.87-.1S351.6,81.29,345.24,78.77Z"/><path class="cls-2" d="M234.47,78.79c-5-6.43-1.47-13,.31-19.15s.91-10.2-4.6-13.48c-2.26-1.35-4-3.53-6.09-5.2-3.11-2.51-5-5.6-3.78-9.6,1.31-4.37,5.36-5.22,8.95-4.77,12.55,1.56,19.24-4.19,22.3-15.93,1-3.71,2.79-8.14,7.69-8.15s6.54,4.56,7.47,8.27c2.95,11.91,9.86,17.4,22.33,15.75,3.75-.5,7.52.65,9.26,4.56,1.93,4.33-1.25,6.79-4,9.28a16.2,16.2,0,0,1-2.24,2c-9.42,5.85-12.45,13.41-7.78,24.1,2.18,5,1.59,10.46-3.48,14.25h-4c-3.29-2.29-7.39-2.91-10.66-5.34-4.84-3.59-9.81-3.36-14.88-.11S240.82,81.26,234.47,78.79Z"/><path class="cls-3" d="M67.34,78.74v2H19c0-.58,0-1.16,0-1.75,5.63-4.68,12.68-6.88,18.79-10.75a8.71,8.71,0,0,1,9.47,0C53.72,72.19,61,74.66,67.34,78.74Z"/><path class="cls-3" d="M178.12,78.77c0,.65,0,1.3,0,2H129.77c0-.58,0-1.17,0-1.76,5.64-4.66,12.69-6.89,18.8-10.75a8.77,8.77,0,0,1,9.48,0C164.5,72.21,171.75,74.64,178.12,78.77Z"/><path class="cls-4" d="M234.47,78.79A18.19,18.19,0,0,0,245.81,76c14.52-8.54,18.43-7.85,31,4.76H234.5Z"/><path class="cls-4" d="M345.24,78.77A17.93,17.93,0,0,0,356.59,76c14.54-8.55,18.52-7.86,31,4.74h-42.3C345.26,80.07,345.25,79.42,345.24,78.77Z"/><path class="cls-2" d="M67.34,78.74C60.4,80,55.17,76.12,50.17,72.48c-5.3-3.87-9.61-4.06-15.07-.1C30.43,75.76,25.56,79.76,19,79,11.93,74,16.36,67.55,17.9,62.56c2.47-8.06.82-13.49-5.81-18.14a40.84,40.84,0,0,1-6.61-6.14c-4.39-4.85-2.57-8.47,2.65-11a6.9,6.9,0,0,1,3.9-.69c14.06,2.22,20.74-5.29,24.14-17.72.86-3.13,2.58-6.58,6.74-6.36,3.87.2,5.5,3.33,6.88,6.48,1.08,2.45,2.63,4.77,3.26,7.32,2,8,7.25,10.5,14.85,10a31.51,31.51,0,0,1,8,.42c7.37,1.45,9,6.56,4.09,12.19a3.13,3.13,0,0,1-.73.68c-12.37,7.23-16.66,17-10.17,30.64C70.41,73,69.15,76.14,67.34,78.74Z"/><path class="cls-2" d="M178.12,78.77C171.18,80,165.94,76.11,161,72.46c-5.32-3.91-9.63-4-15.07-.06-4.68,3.38-9.55,7.38-16.12,6.56-6.17-4.73-2.76-10.66-1.18-15.62,2.58-8.11,1.35-14.18-5.82-19.05a35.52,35.52,0,0,1-6.58-6.16c-4.31-5-2.36-8.76,3-10.86a20.28,20.28,0,0,1,8.89-.91c8.66.75,13.92-2.82,16.27-11.22a36.08,36.08,0,0,1,4-9.14c3.08-5,6.9-4.83,10.38-.37a17,17,0,0,1,3.14,6.22c2.67,11.22,9.44,16.07,21,14.65,4-.5,8.24.17,10.27,4.56,2.29,5-1.5,7.85-4.68,9.82-10.91,6.75-14.59,15.3-8.93,27.41A10.16,10.16,0,0,1,178.12,78.77Z"/><path class="cls-5" d="M454,69.28a10.23,10.23,0,0,1,.52-3.2C459.13,55.83,458,47.72,447,42.15c-4-2-6.42-6.32-4.61-11.14,1.71-4.56,6.22-5.16,10.18-4.54,11,1.73,17-2.84,19.41-13.43a20,20,0,0,1,4.4-7.81c3.26-3.91,6.85-4.12,9.65.65,1.52,2.6,3.2,5.3,3.85,8.17,2.16,9.48,7.67,13.53,17.4,12.37,4.71-.56,9.89-.59,12.26,4.64,2.7,5.95-2.85,8.73-6.17,11.2-8.79,6.54-11.71,14-7.49,24.49,1.32,3.3,2.45,8.49-1.51,11.11-3.72,2.46-8.19.66-11.22-2-8.74-7.65-17-7.8-25.74,0-2.7,2.39-6.41,4-10.28,2.12C453.76,76.31,454,73.09,454,69.28Z"/></g></g></svg>