<svg xmlns="http://www.w3.org/2000/svg" viewBox="0 0 113.67 116.56"><defs><style>.cls-1{fill:#040404;}</style></defs><title>exitloginRecurso 12</title><g id="Capa_2" data-name="Capa 2"><g id="Capa_2-2" data-name="Capa 2"><path class="cls-1" d="M100.32,116.56H49.26a13.36,13.36,0,0,1-13.35-13.34V77.94a4.75,4.75,0,0,1,9.5,0v25.28a3.85,3.85,0,0,0,3.85,3.84h51.06a3.84,3.84,0,0,0,3.85-3.84V13.35a3.85,3.85,0,0,0-3.85-3.85H49.26a3.86,3.86,0,0,0-3.85,3.85V39.81a4.75,4.75,0,0,1-9.5,0V13.35A13.37,13.37,0,0,1,49.26,0h51.06a13.37,13.37,0,0,1,13.35,13.35v89.87A13.36,13.36,0,0,1,100.32,116.56Z"/><path class="cls-1" d="M74.79,63h-70a4.75,4.75,0,0,1,0-9.5h70a4.75,4.75,0,0,1,0,9.5Z"/><path class="cls-1" d="M61.77,79.8a4.76,4.76,0,0,1-3.54-7.92l12.06-13.5-12-12.57a4.75,4.75,0,0,1,6.88-6.55L80.19,55a4.74,4.74,0,0,1,.1,6.44l-15,16.76A4.73,4.73,0,0,1,61.77,79.8Z"/></g></g></svg>