<svg xmlns="http://www.w3.org/2000/svg" viewBox="0 0 134.95 134.94"><title>facebookRecurso 19</title><g id="Capa_2" data-name="Capa 2"><g id="Capa_2-2" data-name="Capa 2"><path d="M134.91,19.19a17.83,17.83,0,0,0-.38-4.31C132.53,6.92,124.78,0,116,0Q67.37.11,18.74,0A17.17,17.17,0,0,0,8.29,3.41C3.59,6.84.51,11.3,0,17.27V117.83A15.75,15.75,0,0,0,2.27,125c3.39,5.61,8.16,9.22,14.84,10h46.6a2.62,2.62,0,0,0,.4-1.89q0-22,0-44.09c0-2.09-.25-2.33-2.36-2.34-3.9,0-7.81,0-11.71,0-1.59,0-1.71-.13-1.71-1.74,0-3.86,0-7.72,0-11.58,0-1.52.13-1.63,1.67-1.64,3.91,0,7.81,0,11.72,0,2.18,0,2.39-.22,2.4-2.42,0-6-.05-12,0-18a19.47,19.47,0,0,1,18.93-19c6-.07,12,0,18,0,1.58,0,1.68.11,1.69,1.76q0,5.65,0,11.31c0,1.81-.09,1.89-2,1.89H88.7c-6.31,0-9.61,3.28-9.61,9.55V68.79q0,.72,0,1.44a1.3,1.3,0,0,0,1.41,1.39c.53,0,1,0,1.58,0h18c1.76,0,1.84.09,1.56,1.79Q100.79,79,99.84,84.6c-.33,2-.38,2-2.33,2-5.4,0-10.79,0-16.19,0-1.94,0-2.22.28-2.22,2.21q0,22.19,0,44.36a2.42,2.42,0,0,0,.41,1.75h37.65a36.17,36.17,0,0,0,3.88-.53c7.45-2.33,13.94-9.76,13.92-18.47C134.86,83.69,134.91,51.44,134.91,19.19Zm-8,95.61c0,7.14-5.16,12.21-12.33,12.23-8.68,0-17.37,0-26.06,0-1,0-1.11-.29-1.11-1.18q0-14.94,0-29.87c0-1,.3-1.12,1.18-1.12,5.61,0,11.23,0,16.85,0,.81,0,1.18-.11,1.33-1,1.65-10.16,3.37-20.3,5.08-30.56h-5.59c-5.88,0-11.76,0-17.64,0-1,0-1.25-.24-1.21-1.22.09-1.88.08-3.77,0-5.66,0-.88.24-1.07,1.08-1.06,7.11,0,14.22,0,21.33,0,1.11,0,1.33-.29,1.33-1.36q-.08-14.55,0-29.09c0-1-.28-1.2-1.23-1.2-8.6,0-17.2,0-25.8,0-13.63,0-24.45,8.52-27.63,21.75a28.61,28.61,0,0,0-.66,6.79c0,3.25,0,6.49,0,9.74,0,.95-.17,1.25-1.19,1.23-4.52-.06-9,0-13.56,0-.83,0-1.09.17-1.09,1.06q.06,14.73,0,29.48c0,.84.18,1.1,1.06,1.09,4.56,0,9.12,0,13.69,0,.84,0,1.08.2,1.08,1.07q0,15,0,30c0,.85-.2,1.08-1.07,1.08-11.54,0-23.08,0-34.62,0A11.83,11.83,0,0,1,7.91,114.84q0-47.31,0-94.63A11.79,11.79,0,0,1,20.05,8.07q47.33-.06,94.64,0A11.82,11.82,0,0,1,126.88,20.3Q126.91,67.55,126.88,114.8Z"/></g></g></svg>