<?xml version="1.0" standalone="no"?>
<!DOCTYPE svg PUBLIC "-//W3C//DTD SVG 20010904//EN"
 "http://www.w3.org/TR/2001/REC-SVG-20010904/DTD/svg10.dtd">
<svg version="1.0" xmlns="http://www.w3.org/2000/svg"
 width="50.000000pt" height="49.000000pt" viewBox="0 0 50.000000 49.000000"
 preserveAspectRatio="xMidYMid meet">

<g transform="translate(0.000000,49.000000) scale(0.100000,-0.100000)"
fill="#000000" stroke="none">
<path d="M22 458 c3 -7 18 -15 34 -18 28 -5 30 -9 53 -111 l24 -106 -22 -22
c-26 -26 -26 -36 -1 -61 19 -19 31 -20 162 -18 102 2 143 6 146 16 3 9 -30 12
-142 12 -123 0 -146 2 -146 15 0 13 22 15 139 15 165 0 172 4 196 96 18 74 19
106 3 122 -8 8 -62 12 -179 12 l-167 0 -7 30 c-6 28 -10 30 -52 30 -31 0 -43
-4 -41 -12z m427 -100 c0 -13 -8 -50 -17 -83 l-17 -60 -122 -3 -122 -3 -11 43
c-6 24 -15 59 -21 78 -5 19 -9 38 -9 43 0 4 72 7 160 7 159 0 160 0 159 -22z"/>
<path d="M157 92 c-34 -37 -11 -76 40 -70 23 2 29 9 31 33 6 48 -40 71 -71 37z
m43 -33 c0 -5 -7 -9 -15 -9 -15 0 -20 12 -9 23 8 8 24 -1 24 -14z"/>
<path d="M329 91 c-21 -16 -22 -22 -11 -45 9 -20 19 -26 41 -26 51 0 65 57 20
80 -23 13 -23 13 -50 -9z m41 -26 c0 -8 -4 -15 -9 -15 -13 0 -22 16 -14 24 11
11 23 6 23 -9z"/>
</g>
</svg>
