<?xml version="1.0" standalone="no"?>
<!DOCTYPE svg PUBLIC "-//W3C//DTD SVG 20010904//EN"
 "http://www.w3.org/TR/2001/REC-SVG-20010904/DTD/svg10.dtd">
<svg version="1.0" xmlns="http://www.w3.org/2000/svg"
 width="50.000000pt" height="49.000000pt" viewBox="0 0 50.000000 49.000000"
 preserveAspectRatio="xMidYMid meet">

<g transform="translate(0.000000,49.000000) scale(0.100000,-0.100000)"
fill="#000000" stroke="none">
<path d="M188 452 c-55 -33 -74 -128 -33 -162 20 -17 19 -27 -3 -34 -45 -15
-122 -118 -122 -164 0 -33 33 -54 81 -50 56 4 66 28 11 28 -22 0 -44 6 -50 13
-18 21 24 94 71 125 35 23 51 27 114 27 60 0 73 3 71 15 -1 8 6 29 15 47 56
106 -56 217 -155 155z m120 -49 c45 -50 6 -123 -64 -123 -44 0 -74 30 -74 73
0 80 84 111 138 50z"/>
<path d="M323 190 c-14 -16 -30 -20 -73 -20 -46 0 -61 -4 -78 -23 l-22 -23 23
-22 c28 -26 97 -31 97 -7 0 11 -11 15 -36 15 -24 0 -34 4 -32 13 3 7 29 13 71
15 51 2 67 6 67 17 0 11 12 15 40 15 34 0 40 -3 46 -26 4 -14 2 -36 -5 -50
-14 -31 -65 -34 -81 -4 -15 27 -30 25 -30 -5 0 -30 26 -45 79 -45 50 0 71 26
71 87 0 57 -26 83 -80 83 -28 0 -45 -6 -57 -20z"/>
<path d="M380 125 c0 -8 7 -15 15 -15 8 0 15 7 15 15 0 8 -7 15 -15 15 -8 0
-15 -7 -15 -15z"/>
</g>
</svg>
