<svg xmlns="http://www.w3.org/2000/svg" viewBox="0 0 77.96 78"><defs><style>.cls-1{fill:#fff;}</style></defs><title>Instagram WRecurso 15</title><g id="Capa_2" data-name="Capa 2"><g id="Capa_2-2" data-name="Capa 2"><path d="M0,39c0-4.75,0-9.49.13-14.24a36.6,36.6,0,0,1,1.21-9.26C3.7,7.7,8.92,3,16.8,1A37.12,37.12,0,0,1,24.45.18C33.34-.08,42.22,0,51.11.1a57.28,57.28,0,0,1,8.07.54C66,1.71,71.41,4.93,74.85,11.07a23.09,23.09,0,0,1,2.72,9.18,93.27,93.27,0,0,1,.39,9.6V48a91.65,91.65,0,0,1-.39,9.8c-.66,6.36-3.13,11.78-8.39,15.69a22,22,0,0,1-9.42,3.84,53.87,53.87,0,0,1-9.15.64Q39,78,27.42,78a59,59,0,0,1-8.6-.55c-6.6-1-11.9-4.09-15.39-9.92a22.43,22.43,0,0,1-2.9-8.93A110.6,110.6,0,0,1,0,45.83C0,43.56,0,41.29,0,39Z"/><path class="cls-1" d="M71,39.05c0,4.46,0,8.92-.13,13.38a35.5,35.5,0,0,1-.82,7.69c-1.51,5.79-5.31,9.1-11.11,10.25a38,38,0,0,1-6.3.56c-6.06.21-12.13.11-18.19.12-3.71,0-7.43,0-11.14-.2A22.74,22.74,0,0,1,16,69.49a12.94,12.94,0,0,1-8-9.21,33.27,33.27,0,0,1-.85-7.64C6.88,44.53,7,36.42,7,28.31a61.36,61.36,0,0,1,.45-8.13c.55-4,2.06-7.4,5.34-9.88a14.67,14.67,0,0,1,6.72-2.69A70.69,70.69,0,0,1,30.33,7Q39.68,7,49,7a80.63,80.63,0,0,1,8.08.37,15.93,15.93,0,0,1,8,2.85,13.55,13.55,0,0,1,5.12,8.31,40.25,40.25,0,0,1,.66,7.1C71.09,30.12,71,34.59,71,39.05Z"/><path d="M59,39A20,20,0,1,1,39,19,20,20,0,0,1,59,39Z"/><path d="M59.79,13.58a4.67,4.67,0,0,1,0,9.34,4.67,4.67,0,1,1,0-9.34Z"/><path class="cls-1" d="M39,52.08A13,13,0,1,1,52.05,39,13.06,13.06,0,0,1,39,52.08Z"/></g></g></svg>