<svg version="1.2" xmlns="http://www.w3.org/2000/svg" viewBox="0 0 182 168" width="179" height="165">
	<title>jamon-svg</title>
	<style>
		.s0 { fill: #000000 } 
		.s1 { fill: #c4865e } 
		.s2 { fill: #fd8a79 } 
		.s3 { fill: #b97c57 } 
		.s4 { fill: #411e12 } 
		.s5 { fill: #c1845c } 
		.s6 { fill: #d2d2d2 } 
		.s7 { fill: #b36a46 } 
		.s8 { fill: #030101 } 
	</style>
	<g id="surface1">
		<path id="Layer" class="s0" d="m164.1 0.1c1.6 1.5 0.8 3.7 1.5 5.6 1.9-1 3.6-1.8 5.4-2.7 1.3-0.7 2.6-1.4 4.1-0.2 1.4 1.2 0.8 2.6 0.1 4-1.8 3.7-3.4 7.5-5.4 11-4.3 7.7-7.6 15.8-11.5 23.6-2.5 5.1-1.4 8.1 4 10.7 0-2.8 0-5.3 0-7.9 0-1.8 0.4-3.4 2.6-3.5 2.2-0.1 2.8 1.4 2.9 3.2 0 1.3 0 2.7 0 4q0 54.4 0 108.7c0 2.7-1 6 3.7 5.5 1.1-0.2 2.1 1.2 2 2.4-0.1 1.2-1.1 2.2-2.3 2.3-1.1 0.1-2.3 0-3.4 0h-153.6c-0.8 0-1.6 0-2.4 0-1.8 0.1-3.2-0.6-3.3-2.3 0-2 1.5-2.6 3.4-2.6q10.7 0 21.3 0c3.4 0 6.7 0 10.2-0.3-14.2-4.6-25.6-12.6-32.8-25.9-5.6-10.3-6.9-21.3-4.4-32.7 1.7-7.9 7.2-13.3 13.3-17.8 25.4-19.1 53.8-31.4 84.7-38.3 9.9-2.2 18.9-6.4 27.6-11.5 1.1-0.7 2.5-1.3 0.8-2.9-1.5-1.3-3.6-2.8-1.6-4.8 2-2.1 3.8 0.1 5.4 1.4 0.5 0.4 1 0.8 1.6 1.3 3-3.3 5.2-6.8 5.1-11.5 0-2.6 0.6-5.3 1.6-7.7 1.1-2.5 3.2-5.4 5.7-4.8 6 1.4 7.7-3.3 10.8-6.3z"/>
		<path id="Layer" class="s1" d="m77.2 154q-0.4 0.4-0.8 0.6c-10.1 4.4-10.2 4.3-10.3-6.4 0-6.4-0.2-6.7-6.6-6.7-12-0.1-10-0.4-10.1 10-0.1 6.4-0.1 6.6-6.3 4.4-18.7-6.5-30.4-19-32.7-39.3q-0.1-1.3-0.1-2.5c-0.3-10.8 0.8-12 11.1-13.9 25.3-4.8 49.4-12.6 69.8-29.2 5.2-4.3 10.3-8.8 14.2-14.4 2.8-4.2 7-7.3 11.9-8.8 6.4-2.1 12.5-5 18.1-8.8 1.9-1.2 3-1 4.7 0.4 10.1 8.4 10.2 8.4 5.1 20.5-5.3 12.6-11 25-18.4 36.6q-18.7 23.6-38.6 46.3c-3.5 3.9-6.7 8.2-11 11.2z"/>
		<path id="Layer" class="s2" d="m16.2 95.4c4.9-5.7 10.1-9.4 15.4-12.8 19.4-12.5 40.5-22 62.7-28.3 0.4-0.1 0.9-0.4 1.4-0.4 1.4-0.3 3.2-0.9 4 0.5 0.8 1.4-1 2.3-1.8 3.2-7 7.7-15.2 14.2-24.2 19.4-16.8 9.9-35.2 15-54.2 18.4q-1.7 0.1-3.3 0z"/>
		<path id="Layer" class="s3" d="m118.5 118.5c-1.5 1.3-2.8 2.6-3.1 4.6-2.4-2.6-4.2-1.4-5.8 1-4.7 7-10.1 13.4-16.2 19.2-4.8 4.5-9.9 8.6-16.2 10.7 9-10.6 18.1-21.1 27.1-31.8 5.6-6.6 11-13.4 16.5-20.1 1.7-2.2 3.3-4.5 6.1-5.6-2.7 5.9-6.6 11.2-9.9 16.7-1.5 2.4-2.6 4.6 1.5 5.3z"/>
		<path id="Layer" class="s4" d="m148.3 28.9c0.2-5.5-0.8-11.1 2-16.4 2.7 1.6 1.5 4.4 2.5 6.3 0.7 1.5 1.2 3.3 3.4 2.9 2.1-0.5 2.1-2.3 2-4q-0.3-2-0.9-3.8c-0.3-1.7 0.1-3.2 1.6-3.9 2-0.9 1.1 1.4 1.8 2 2.1 1.9 3.9 0.3 6.6-0.6q-6 10.4-10.9 21.4c-3-0.5-5.9-1.5-8.1-3.9z"/>
		<path id="Layer" class="s5" d="m148.3 28.9c2.7 1.3 6.2 1 8.1 4l-4.5 10.4c-2.6-2.4-5-4.4-7.2-6.6-2.9-2.6-2.5-4.8 1.1-6.5 0.9-0.3 1.9-0.3 2.5-1.3z"/>
		<path id="Layer" class="s6" d="m60.8 152.3c-0.2 1.8 0.1 3.8-0.7 5.3-0.7 1.4-2.6 0.5-4 0.5-1.7 0-1.5-1.4-1.5-2.6 0-1.8 0-3.6 0-5.4-0.1-2.1 0-3.7 2.9-3.8 3.4-0.1 3.3 1.8 3.2 4q0 1 0 2z"/>
		<path id="Layer" class="s7" d="m58.9 129.2c11.2 1.1 20.8-3.7 28.8-12.1q0.9-0.9 1.8-1.7c1.2-1.1 2.7-1.8 3.9-0.4 1.3 1.3 0.5 2.8-0.6 4-5.5 6-11.5 11-19.7 13.5-7.3 2.2-14.6 1.5-21.9 1.5-1.6 0-3.5-0.6-3.5-2.8 0-2.6 2.2-1.9 3.7-1.9 2.3-0.2 4.6-0.1 7.5-0.1z"/>
		<path id="Layer" class="s7" d="m131.5 64.8c0 1 0 2 0 3-0.2 1.8-1 3.3-2.9 3.4-2 0-2-1.8-2-3.3 0.1-2.5-0.6-4.1-3.4-4.3-0.9-0.1-1.5-0.9-1.4-1.7-0.1-1.1 0.5-1.7 1.5-2.2 5-2.8 8.2-0.9 8.2 5.1z"/>
		<path id="Layer" class="s8" d="m39.8 88.3c-2.8 0.2-4.1-0.3-4.3-1.8-0.4-2.2 1.2-2.7 2.9-3.1 12.4-3.1 23.7-8.6 34.6-15.1 2.5-1.6 4.8-3.4 7.3-5 0.5-0.4 1.2-0.6 1.9-0.5 0.6 0.1 1.2 0.5 1.6 1.1 0.4 0.4 0.5 1 0.5 1.6-0.1 0.6-0.4 1.1-0.9 1.5-13 9.8-27.8 17.1-43.6 21.3z"/>
	</g>
</svg>