<svg xmlns="http://www.w3.org/2000/svg" viewBox="0 0 172.41 171.08"><title>loginRecurso 8</title><g id="Capa_2" data-name="Capa 2"><g id="Capa_2-2" data-name="Capa 2"><path d="M120.63,86.06a103.91,103.91,0,0,0-14.34-5.14,43.27,43.27,0,1,0-44.73-1.3,75.48,75.48,0,0,0-11.92,4C28.44,92.9,8.41,114.12,2,134.1c-3,9.51-2.66,17.83,1.09,24.07s12.59,12.91,33.71,12.91c3.46,0,7.26-.18,11.42-.58A6.34,6.34,0,0,0,47,157.87c-26.36,2.51-32.15-4.75-33-6.23-1.79-3-1.75-7.84.12-13.68,4.49-14.07,20.24-33.8,40.59-42.67,25.37-11.05,50.93-2,60.74,2.35a6.34,6.34,0,1,0,5.18-11.58ZM54.42,43.27A30.59,30.59,0,1,1,85,73.85,30.61,30.61,0,0,1,54.42,43.27Z"/><path d="M112.7,128h0Z"/><path d="M114.58,128h0Z"/><circle cx="143.52" cy="134.77" r="6.15"/><path d="M172.41,136.43a34.42,34.42,0,0,1-65.68,14.41,6.34,6.34,0,1,1,11.51-5.32,21.73,21.73,0,1,0,.9-19.94,5.68,5.68,0,0,1-1.31,1.71,4.09,4.09,0,0,1-2.34.64,7.23,7.23,0,0,1-.91,0H69.94l-7.63,6.84,6.13,5.52H94.07V153H66a6.36,6.36,0,0,1-4.25-1.63L48.58,139.53a6.35,6.35,0,0,1,0-9.43l14.69-13.17a6.31,6.31,0,0,1,4.23-1.63h42.08c4.19-7.06,16.66-13.3,28.4-13.3A34.47,34.47,0,0,1,172.41,136.43Z"/></g></g></svg>