<svg xmlns="http://www.w3.org/2000/svg" viewBox="0 0 169.4 169.4"><defs><style>.cls-1{fill:#fefefe;}</style></defs><title>twitterRecurso 18</title><g id="Capa_2" data-name="Capa 2"><g id="Capa_2-2" data-name="Capa 2"><path d="M62,108.77A62.05,62.05,0,0,1,46,91.14c-9-15-11.18-31-7.22-47.89.24-1,.27-2.44,1.87-2.62s2,1,2.63,1.93a58.2,58.2,0,0,0,35.9,24.23c1,.22,1.94.35,3.07.56a24.83,24.83,0,0,1,2-10.27,20.8,20.8,0,0,1,35.2-4.29,3.67,3.67,0,0,0,3.81,1.59,66,66,0,0,0,12.61-2.59c1.1-.35,2.18-.66,2.92.41s.17,2-.5,3A59.84,59.84,0,0,1,125.73,68a4.32,4.32,0,0,0-2,3.48C121.48,100,99.41,123.8,71.36,128a62.26,62.26,0,0,1-38.87-6.37c-1.09-.57-2.48-1-2.16-2.64s1.72-1.55,3-1.59A58.93,58.93,0,0,0,62,108.77Z"/><path d="M61.35,133.05a66,66,0,0,1-30.83-7.61l-.32-.16c-4.1-2-4.48-5-4.06-7.09s1.94-4.92,6.75-5A54.06,54.06,0,0,0,54.35,108a64.08,64.08,0,0,1-12-14.66c-9.37-15.69-12-32.87-7.71-51l.06-.3c.83-4.22,3.46-5.37,5.51-5.59a6.55,6.55,0,0,1,6.39,3.43l.2.3c8,11.44,18.36,18.68,31.58,22.08a25.67,25.67,0,0,1,2-6.89,25.07,25.07,0,0,1,42.42-5.19h0a61,61,0,0,0,11.78-2.41c3.46-1.09,6.05-.39,7.74,2.06.94,1.36,2.13,4.22-.58,7.91a63.44,63.44,0,0,1-13.45,13.77,1.93,1.93,0,0,0-.22.18s0,.1,0,.21c-2.46,30.48-26,55.88-56,60.39A71.52,71.52,0,0,1,61.35,133.05Zm-20-12.13a58.31,58.31,0,0,0,29.39,2.87c26.12-3.93,46.64-26.06,48.79-52.62a8.51,8.51,0,0,1,3.67-6.57,51.79,51.79,0,0,0,7.73-7.11c-2.27.47-4.65.84-7.19,1.13a7.87,7.87,0,0,1-7.62-3.16,16.56,16.56,0,0,0-15-6.13,16.39,16.39,0,0,0-13,9.53,20.8,20.8,0,0,0-1.61,8.54l-.07,5-6-1.05c-.79-.13-1.53-.26-2.25-.42A62.37,62.37,0,0,1,42.12,48.18,57.17,57.17,0,0,0,49.65,89a57.91,57.91,0,0,0,14.89,16.43l5,3.83-5.43,3.23A64,64,0,0,1,41.34,120.92Z"/><path class="cls-1" d="M41.75,46.93C50.57,58.2,61.34,65.72,74.63,69.46c2.84.8,5.75,1.36,8.66,1.9,2.51.47,3.27-.35,3-2.88-1-8.46,3.22-15.73,10.88-18.69a16.78,16.78,0,0,1,20.3,6.62,3.83,3.83,0,0,0,4,1.81,85.88,85.88,0,0,0,10.73-1.51,48,48,0,0,1-9.82,9.16,5,5,0,0,0-2.3,4.21,58.52,58.52,0,0,1-49.92,54.24c-11,1.53-22.19.25-30.4-3.62A68.8,68.8,0,0,0,58,115.16a59.14,59.14,0,0,0,7.48-4.23c2.35-1.6,2.34-2.61-.16-4.39A57.75,57.75,0,0,1,46.88,85.1C40.93,73.18,39.21,60.64,41.75,46.93Z"/><path d="M129.23,169.4H40.17A40.22,40.22,0,0,1,0,129.23V40.17A40.22,40.22,0,0,1,40.17,0h89.06A40.22,40.22,0,0,1,169.4,40.17v89.06A40.22,40.22,0,0,1,129.23,169.4ZM40.17,8.54A31.67,31.67,0,0,0,8.54,40.17v89.06a31.67,31.67,0,0,0,31.63,31.63h89.06a31.67,31.67,0,0,0,31.63-31.63V40.17A31.67,31.67,0,0,0,129.23,8.54Z"/></g></g></svg>